<svg xmlns="http://www.w3.org/2000/svg" viewBox="0 0 470.78 165.68"><defs><style>.cls-1{fill:#eeb71e;}.cls-2{fill:#fff;}</style></defs><title>Asset 9</title><g id="Layer_2" data-name="Layer 2"><g id="Layer_1-2" data-name="Layer 1"><path class="cls-1" d="M461.52,54.22a5.62,5.62,0,0,1,0,.59,64.22,64.22,0,0,1-2.67,19.08,45.8,45.8,0,0,0-4.85-5.1,53.27,53.27,0,0,0-19.36-10.91c-.71-.23-1.42-.45-2.15-.65.12-1.24.17-2.56.17-3.93,0-8.51-2.49-15.08-7.41-19.72s-12.13-7-21.58-7H362v55.2h39.6c1.63,0,3.19-.07,4.7-.21H408q17.23,0,25.58,7.38a23.26,23.26,0,0,1,6.67,9.93c-.64.43-1.3.83-2,1.23q-12.74,7.62-31,7.59H333.13V.71h74.13q18.27,0,31,7.59a44.31,44.31,0,0,1,8.65,6.6q14.64,14.19,14.63,38.73A5.82,5.82,0,0,1,461.52,54.22Z"/><path class="cls-2" d="M470.78,110a63.42,63.42,0,0,1-4.35,23.32A48.65,48.65,0,0,1,454,151.09,52.92,52.92,0,0,1,434.66,162a80.65,80.65,0,0,1-25,3.67H333.13V107.73H362v30.53h48.11q14.87,0,23.36-7.22t8.47-21.4a31.38,31.38,0,0,0-1.7-10.73A23.11,23.11,0,0,0,433.55,89Q425.18,81.6,408,81.6H362v.21h0V54.22h47.67a82.43,82.43,0,0,1,22.89,3c.73.19,1.44.42,2.15.65A53.19,53.19,0,0,1,454,68.79a44.9,44.9,0,0,1,4.85,5.1,49.46,49.46,0,0,1,7.56,12.73A63.43,63.43,0,0,1,470.78,110Z"/><path class="cls-2" d="M81.54,165H52.32V26.87H0V0H133.86V26.87H81.54Z"/><path class="cls-2" d="M270.32,165.68l-40.66-57.51H193.25v57.51H164.5V.71H238A83.91,83.91,0,0,1,263.6,4.36a55.61,55.61,0,0,1,19.33,10.37,44.74,44.74,0,0,1,12.13,16.5A54.18,54.18,0,0,1,299.31,53a54.2,54.2,0,0,1-2.95,18.5,48,48,0,0,1-8.13,14.37,48.92,48.92,0,0,1-12.37,10.61A61.38,61.38,0,0,1,260,103.23l44.54,62.45ZM260.86,33.85q-9-7-25.29-7H193.25V82.49h42.56q15.58,0,24.81-7.57t9.23-20.36Q269.85,40.83,260.86,33.85Z"/></g></g></svg>